<?xml version="1.0"?>
<svg width="300.68042" height="596.95062" xmlns="http://www.w3.org/2000/svg" xmlns:svg="http://www.w3.org/2000/svg">
 <!-- Created with SVG-edit - https://github.com/SVG-Edit/svgedit-->
 <g class="layer">
  <title>Layer 1</title>
  <path d="m3.48,593.14c0,0.88 0.3,1.58 0.67,1.58l294.34,0c0.37,0 0.67,-0.7 0.67,-1.58c0,-0.87 -0.3,-1.57 -0.67,-1.57l-294.34,0c-0.37,0 -0.67,0.7 -0.67,1.57z" fill="#3f3c57" id="svg_30"/>
  <g id="svg_7">
   <polygon fill="#fdb4b4" id="svg_8" points="166.455810546875,65.6771125793457 173.954345703125,99.89427947998047 158.00482177734375,147.52127075195312 132.30838012695312,96.34992980957031 135.87380981445312,66.66326904296875 166.455810546875,65.6771125793457 "/>
   <rect fill="#0a0a5c" height="53.61" id="svg_9" width="44.37" x="130.98" y="98.12"/>
   <circle cx="157.1" cy="52.61" fill="#fdb4b4" id="svg_10" r="30.3"/>
   <path d="m130.73,75.15s-22.59,-41.71 -2.22,-61.79c20.36,-20.07 36.71,-6.84 36.71,-6.84l9.33,-0.38s1.95,7.34 5.09,3.37s8.81,10.5 8.81,10.5c10.53,18.97 -25.97,23.21 -25.97,23.21c0,0 2.63,8.4 -0.04,10.16s-9.84,8.37 -9.84,8.37l-6.41,4.84l-3.81,-5.8s-3.97,-3.14 -5.98,-1.82s0.75,18.67 0.75,18.67l-6.42,-2.49l0,0s0,0 0,0z" fill="#2e2e41" id="svg_11"/>
   <polygon fill="#2e2e41" id="svg_12" points="94.37786865234375,382.0154724121094 82.79327392578125,554.819091796875 111.2720947265625,555.7844848632812 148.92202758789062,383.46356201171875 94.37786865234375,382.0154724121094 "/>
   <polygon fill="#2e2e41" id="svg_13" points="163.40277099609375,381.05010986328125 151.81817626953125,553.853759765625 180.2969970703125,554.819091796875 217.94696044921875,382.4981689453125 163.40277099609375,381.05010986328125 "/>
   <path d="m87.4,421.5l15.16,-188.21l-23.25,-98c-2,-14.57 7.18,-28.35 21.35,-32.11l22.75,-6.04l10.06,-10.07l22.91,50.58l14.3,-50.54l11.16,8.11l33.08,14.6l-0.01,0.34l-5.31,118.39l11.85,191.27l-0.53,0.01l-133.52,1.67l0,0z" fill="#e8e9ea" id="svg_14"/>
   <path d="m178.47,552.86l8.24,24.62s32.27,4.38 32.77,14.37s-43.85,4.21 -69.81,5.51s-4.36,-26.81 -4.36,-26.81l2.77,-16.16l30.39,-1.53l0,0l0,0z" fill="#2e2e41" id="svg_15"/>
   <path d="m111.13,551.09l8.24,24.61s32.26,4.39 32.77,14.38s-43.85,4.2 -69.82,5.51s-4.35,-26.82 -4.35,-26.82l2.77,-16.16l30.39,-1.52l0,0z" fill="#2e2e41" id="svg_16"/>
   <path d="m70.89,321.54c-0.34,-4.85 0.47,-9.72 2.39,-14.19l-6.15,-50.48l24.1,-2.23l3.65,51.45c2.42,4.22 3.8,8.96 4.02,13.82c0.71,12.15 -4.99,22.37 -12.72,22.82s-14.58,-9.03 -15.29,-21.19l0,0l0,0l0,0z" fill="#fdb4b4" id="svg_17"/>
   <path d="m223.59,328.96c-0.3,-4.86 0.57,-9.72 2.54,-14.17l-5.6,-50.55l24.13,-1.96l3.08,51.48c2.38,4.25 3.71,9 3.87,13.86c0.58,12.17 -5.23,22.32 -12.97,22.69s-14.47,-9.2 -15.05,-21.35l0,0l0,0l0,0z" fill="#fdb4b4" id="svg_18"/>
   <path d="m67.03,301.3l-0.08,-0.44l-12.57,-67.41l14.85,-109.78c1.32,-9.8 10.07,-16.86 19.94,-16.07c5.16,0.41 9.78,2.86 13.02,6.88c3.25,4.03 4.65,9.07 3.95,14.19l-11.17,82.33l7.04,88.07s-34.98,2.23 -34.98,2.23z" fill="#e8e9ea" id="svg_19"/>
   <path d="m216.14,299.72l-25.26,-168.62c-1.31,-4.95 -0.54,-10.12 2.18,-14.52s7,-7.4 12.07,-8.44c9.69,-2.01 19.25,3.91 21.78,13.48l24.27,175.98l-35.04,2.12l0,0z" fill="#e8e9ea" id="svg_20"/>
   <circle cx="157.12" cy="149.96" fill="#d6d7d8" id="svg_21" r="3.1"/>
   <circle cx="157.12" cy="173.44" fill="#d6d7d8" id="svg_22" r="3.1"/>
   <circle cx="157.12" cy="196.92" fill="#d6d7d8" id="svg_23" r="3.1"/>
   <circle cx="157.12" cy="220.4" fill="#d6d7d8" id="svg_24" r="3.1"/>
   <circle cx="157.12" cy="243.88" fill="#d6d7d8" id="svg_25" r="3.1"/>
   <circle cx="157.12" cy="267.36" fill="#d6d7d8" id="svg_26" r="3.1"/>
   <circle cx="157.12" cy="290.85" fill="#d6d7d8" id="svg_27" r="3.1"/>
   <circle cx="157.12" cy="314.33" fill="#d6d7d8" id="svg_28" r="3.1"/>
   <polygon fill="#0a0a5c" id="svg_29" points="157.1224365234375,335.592041015625 98.44241333007812,327.77203369140625 97.31240844726562,327.62200927734375 67.32241821289062,258.47198486328125 49.462371826171875,217.302001953125 95.98239135742188,217.302001953125 157.1224365234375,335.592041015625 "/>
  </g>
  <path d="m185.55,134.22l-1.92,-0.56c4,-13.72 -4.53,-39.71 -4.61,-39.97l2.4,1.81c0.36,1.08 8.31,24.4 4.13,38.72z" fill="#3f3c57" id="svg_6"/>
  <path d="m118.06,136.65l1.92,-0.56c-4,-13.71 4.63,-39.31 4.71,-39.56l-2.05,1.37c-0.37,1.08 -8.75,24.44 -4.58,38.75z" fill="#3f3c57" id="svg_5"/>
  <circle cx="184.59" cy="141.61" fill="#3f3c57" id="svg_4" r="8.35"/>
  <path d="m126.97,188.03l-5.07,0c-0.55,0 -1,-0.45 -1,-1s0.45,-1 1,-1l5.07,0c1.39,0 2.71,-0.55 3.69,-1.53c0.99,-0.99 1.53,-2.3 1.53,-3.7l-0.07,-31.21c0,-6.78 -5.51,-12.29 -12.29,-12.29s-12.29,5.51 -12.29,12.29l0.06,29.21c0.01,2.85 2.33,5.19 5.18,5.21l3.48,0.03c0.55,0 1,0.45 0.99,1c0,0.55 -0.45,1 -1,1l-0.01,0l-3.47,-0.03c-3.94,-0.03 -7.16,-3.26 -7.17,-7.2l-0.06,-29.22c0,-7.88 6.41,-14.29 14.29,-14.29c7.88,0 14.29,6.41 14.29,14.29l0.07,31.21c0,1.93 -0.75,3.74 -2.11,5.11c-1.37,1.37 -3.18,2.12 -5.11,2.12z" fill="#3f3c57" id="svg_3"/>
  <circle cx="116.25" cy="185.03" fill="#3f3c57" id="svg_2" r="3.54"/>
  <circle cx="121.9" cy="187.03" fill="#3f3c57" id="svg_1" r="3.54"/>
 </g>
</svg>