<?xml version="1.0"?>
<svg width="300.68042" height="596.95062" xmlns="http://www.w3.org/2000/svg" xmlns:svg="http://www.w3.org/2000/svg">
 <!-- Created with SVG-edit - https://github.com/SVG-Edit/svgedit-->
 <g class="layer">
  <title>Layer 1</title>
  <path d="m4.48,593.75c0,0.6 0.3,1.08 0.67,1.08l295.34,0c0.37,0 0.67,-0.48 0.67,-1.08c0,-0.59 -0.3,-1.07 -0.67,-1.07l-295.34,0c-0.37,0 -0.67,0.48 -0.67,1.07z" fill="#3f3c57" id="svg_31"/>
  <g id="svg_7">
   <polygon fill="#2e2e41" id="svg_8" points="121.39788818359375,72.31505584716797 158.7052001953125,51.87712478637695 158.7052001953125,110.27118682861328 115.5584716796875,110.27118682861328 121.39788818359375,72.31505584716797 "/>
   <polygon fill="#fdb4b4" id="svg_9" points="166.7039794921875,85.33401489257812 170.1470947265625,114.00203704833984 145.33233642578125,163.41748046875 129.93017578125,117.42473602294922 137.17138671875,84.38170623779297 166.7039794921875,85.33401489257812 "/>
   <rect fill="#0a0a5c" height="51.77" id="svg_10" width="42.85" x="128.58" y="115.71"/>
   <polygon fill="#2e2e41" id="svg_11" points="206.7760009765625,389.8653259277344 217.963134765625,556.7393798828125 190.4615478515625,557.671630859375 154.103515625,391.2637023925781 206.7760009765625,389.8653259277344 "/>
   <polygon fill="#2e2e41" id="svg_12" points="140.11962890625,388.93304443359375 151.3067626953125,555.80712890625 123.80517578125,556.7393798828125 87.44708251953125,390.3314514160156 140.11962890625,388.93304443359375 "/>
   <path d="m235.83,425.26l-0.65,0l-175.2,-0.58l0.16,-0.62l45.04,-178.46l-11.28,-90.06c-2.14,-17.07 6.99,-33.2 22.73,-40.14l5.68,-2.51l10.79,-7.84l13.81,48.78l22.11,-48.82l9.73,9.74l21.97,5.82c13.69,3.63 22.56,16.95 20.63,30.99l-0.02,0.09l-33.55,95.71l48.05,177.9z" fill="#e8e9ea" id="svg_13"/>
   <path d="m125.57,554.84l29.35,1.48l2.67,15.6s20.87,27.16 -4.2,25.9s-67.91,4.32 -67.42,-5.33s31.64,-13.88 31.64,-13.88l7.96,-23.77l0,0l0,0z" fill="#2e2e41" id="svg_14"/>
   <path d="m190.6,553.13l29.35,1.48l2.67,15.6s20.87,27.16 -4.2,25.9s-67.9,4.32 -67.42,-5.33s31.64,-13.88 31.64,-13.88l7.96,-23.77l0,0l0,0z" fill="#2e2e41" id="svg_15"/>
   <path d="m217.47,329.75l0,0c-0.68,11.74 -7.29,20.9 -14.76,20.46c-7.46,-0.43 -12.96,-10.3 -12.28,-22.04c0.21,-4.69 1.54,-9.27 3.88,-13.34l3.52,-49.69l23.28,2.15l-5.94,48.76c1.85,4.32 2.64,9.02 2.3,13.7l0,0z" fill="#fdb4b4" id="svg_16"/>
   <path d="m97.84,325.29l0,0c-0.94,11.72 -7.74,20.74 -15.2,20.14s-12.74,-10.57 -11.81,-22.3c0.31,-4.68 1.74,-9.23 4.17,-13.25l4.57,-49.6l23.23,2.64l-6.98,48.62c1.76,4.36 2.45,9.07 2.02,13.75l0,0l0,0z" fill="#fdb4b4" id="svg_17"/>
   <path d="m221.22,310.22l-33.81,-2.16l0.04,-0.51l6.76,-84.54l-10.79,-79.51c-0.67,-4.95 0.68,-9.82 3.82,-13.71c3.13,-3.9 7.6,-6.26 12.58,-6.66l0,0c9.54,-0.75 18,6.06 19.28,15.54l14.34,106.01l-0.02,0.08l-12.2,65.46z" fill="#e8e9ea" id="svg_18"/>
   <path d="m103.46,306.98l-33.86,-2.05l0.07,-0.53l23.36,-169.37c2.45,-9.3 11.7,-15.03 21.06,-13.09c4.9,1.01 9.04,3.91 11.67,8.16s3.37,9.25 2.09,14.08l-24.39,162.8z" fill="#e8e9ea" id="svg_19"/>
   <circle cx="146.19" cy="165.77" fill="#d6d7d8" id="svg_20" r="2.99"/>
   <circle cx="146.19" cy="188.45" fill="#d6d7d8" id="svg_21" r="2.99"/>
   <circle cx="146.19" cy="211.12" fill="#d6d7d8" id="svg_22" r="2.99"/>
   <circle cx="146.19" cy="233.8" fill="#d6d7d8" id="svg_23" r="2.99"/>
   <circle cx="146.19" cy="256.47" fill="#d6d7d8" id="svg_24" r="2.99"/>
   <circle cx="146.19" cy="279.15" fill="#d6d7d8" id="svg_25" r="2.99"/>
   <circle cx="146.19" cy="301.82" fill="#d6d7d8" id="svg_26" r="2.99"/>
   <circle cx="146.19" cy="324.5" fill="#d6d7d8" id="svg_27" r="2.99"/>
   <circle cx="150.73" cy="71.95" fill="#fdb4b4" id="svg_28" r="28.01"/>
   <path d="m165.42,39.25c1.34,2.73 -0.79,6.14 -3.61,7.29s-6,0.68 -9,0.2s-6.19,-0.93 -9,0.24c-3.64,1.51 -5.69,5.3 -7.45,8.82c-3.3,6.57 -6.59,13.14 -9.89,19.71c-1.61,3.2 -3.26,6.56 -3.29,10.15c-0.05,6.59 5.17,11.85 7.99,17.81c3.42,7.26 3.14,16.15 -0.74,23.18c-3.88,7.02 -11.25,12 -19.22,12.97c-2.09,0.25 -4.31,0.22 -6.2,-0.73s-3.32,-3.03 -2.97,-5.11c0.68,-4.07 6.9,-5.02 8.05,-8.99c0.59,-2.07 -0.46,-4.29 -1.89,-5.9s-3.22,-2.88 -4.58,-4.56c-3.13,-3.86 -3.34,-9.81 -0.49,-13.88c1.68,-2.39 4.28,-4.17 5.36,-6.88c0.92,-2.31 0.59,-4.91 0.24,-7.38c-0.45,-3.16 -0.9,-6.33 -1.35,-9.5c-0.53,-3.7 -1.04,-7.52 -0.01,-11.11c2.38,-8.22 11.66,-12.08 17.1,-18.68c2.53,-3.06 4.23,-6.75 6.82,-9.76c4.36,-5.06 11.21,-7.85 17.86,-7.27c6.64,0.58 12.91,4.52 16.32,10.25" fill="#2e2e41" id="svg_29"/>
   <path d="m160.99,39.77c-1.37,0.49 -1.87,2.27 -1.48,3.67c0.39,1.4 1.43,2.51 2.37,3.61c10.68,12.5 13.16,31.41 6.07,46.24c-1.89,3.94 -4.4,7.65 -5.42,11.91c-0.74,3.09 -0.7,6.49 -2.41,9.16c-1.75,2.73 -5.21,4.56 -5.56,7.78c-0.22,2.07 1.04,4.07 2.73,5.29s3.76,1.76 5.78,2.21c5.28,1.18 10.67,1.82 16.07,1.92c1.76,0.03 3.58,-0.01 5.2,-0.71s2.99,-2.23 3.01,-3.99c0.01,-1.38 -0.79,-2.66 -0.89,-4.04c-0.3,-4.14 5.26,-6.34 6.35,-10.34c0.71,-2.63 -0.69,-5.34 -2.19,-7.62c-1.5,-2.28 -3.2,-4.68 -3.17,-7.4c0.04,-2.61 1.68,-4.91 2.31,-7.44c0.88,-3.51 -0.2,-7.17 -1.27,-10.62c-0.91,-2.93 -1.83,-5.86 -2.74,-8.79c-0.97,-3.12 -1.94,-6.23 -2.91,-9.35c-1.69,-5.44 -3.47,-11.04 -7.13,-15.4c-3.67,-4.37 -9.74,-7.23 -15.15,-5.44" fill="#2e2e41" id="svg_30"/>
  </g>
  <g id="svg_1">
   <path d="m180.08,148.32l-1.92,-0.56c4,-13.72 -4.62,-39.31 -4.71,-39.57l1.89,-0.64c0.37,1.07 8.92,26.45 4.74,40.77z" fill="#3f3c57" id="svg_2"/>
   <circle cx="179.12" cy="155.72" fill="#3f3c57" id="svg_3" r="8.35"/>
   <path d="m124.23,185.29l-5.07,0c-0.55,0 -1,-0.44 -1,-1s0.45,-1 1,-1l5.07,0c1.4,0 2.71,-0.54 3.69,-1.53c0.99,-0.99 1.53,-2.3 1.53,-3.7l-0.06,-31.2c0,-6.78 -5.52,-12.3 -12.29,-12.3s-12.3,5.52 -12.3,12.3l0.07,29.21c0,2.84 2.32,5.18 5.17,5.2l3.48,0.03c0.55,0 1,0.45 0.99,1.01c0,0.55 -0.45,0.99 -1,0.99l0,0l-3.48,-0.03c-3.94,-0.03 -7.16,-3.26 -7.16,-7.2l-0.07,-29.21c0,-7.88 6.41,-14.3 14.3,-14.3c7.88,0 14.29,6.42 14.29,14.3l0.06,31.2c0,1.93 -0.75,3.75 -2.11,5.11c-1.36,1.37 -3.18,2.12 -5.11,2.12z" fill="#3f3c57" id="svg_4"/>
   <circle cx="113.51" cy="182.3" fill="#3f3c57" id="svg_5" r="3.54"/>
   <circle cx="119.16" cy="184.29" fill="#3f3c57" id="svg_6" r="3.54"/>
  </g>
 </g>
</svg>